<?xml version="1.0" encoding="utf-8"?>
<!-- Generator: Adobe Illustrator 21.1.0, SVG Export Plug-In . SVG Version: 6.00 Build 0)  -->
<svg version="1.1" id="Layer_1" xmlns="http://www.w3.org/2000/svg" xmlns:xlink="http://www.w3.org/1999/xlink" x="0px" y="0px"
     viewBox="0 0 51 44" style="enable-background:new 0 0 51 44;" xml:space="preserve" width="30px" height="28px">
<style type="text/css">
  .st0{fill:transparent;}
</style>
<path class="st0" d="M45,12.6C38,2.8,32.3-0.9,28,1.7c-0.5,0.4-0.8,0.7-1.1,1.2l-0.1-0.1c-0.7,0.9-3,3.4-4.8,5.4
  c-2.1,2.4-2.7,3.1-2.9,3.3c-0.2,0.3-1,1.2-2,2.3c-3.2,3.7-9.3,10.5-13.5,16.5C2.5,32,3.1,34.5,4,36.1C5,37.9,6.4,39,7.9,39
  C8,39,8,39,8.1,39c1.4,0,3-0.1,4.8-0.3c0,0.2,0,0.5,0,0.7c0.2,1.2,0.8,2.4,1.8,3.1c0.8,0.6,1.7,0.9,2.6,0.9c0.2,0,0.5,0,0.7-0.1
  l7.5-1c2.4-0.3,4.2-2.7,3.9-5.1c-0.1-0.5-0.2-0.9-0.4-1.4c0.5-0.1,1-0.2,1.4-0.3c11.2-2.6,14.3-3.7,15.3-4.2c0,0,0.1,0,0.1-0.1
  c1.4-0.5,2.4-1.8,2.9-3.7C49.7,24,48.9,18.1,45,12.6z M6.1,32c4.1-5.9,10.1-12.6,13.3-16.3c1.3-1.4,1.9-2.1,2.2-2.5
  c0.2-0.2,1.5-1.7,2.7-3c0.3-0.4,0.7-0.8,1-1.2c0.1,2.4,1,5.2,2.5,8.5c-4,0.8-16.1,8.8-21.7,15.5C6,32.5,6,32.1,6.1,32z M26.5,37.7
  c0.1,0.8-0.5,1.6-1.3,1.7l-7.5,1h-0.1c-0.5,0.1-0.9,0-1.1-0.2c-0.3-0.3-0.5-0.7-0.6-1.1c-0.1-0.2,0-0.5,0.1-0.8
  c3.1-0.5,6.4-1.1,9.5-1.7C26,36.8,26.4,37.2,26.5,37.7z M45.9,26.8c-0.3,0.8-0.7,1.5-1.1,1.7c-0.2,0-0.4,0-0.6,0.1v0.1
  c-1.8,0.5-4.1-0.4-6.4-2.1c1.8-1,1.7-6-0.2-8.9c-2.7-4.2-6-5.1-8.3-4.4c-1.7-4.8-0.8-7.2,0.1-8.6l0.1-0.2c0-0.2,0-0.2,0.1-0.2
  C30,4.1,30.4,4,30.8,4c2.6,0,7,3.8,11.8,10.4C45.9,19.1,46.6,24.1,45.9,26.8z"/>
</svg>
