<?xml version="1.0" encoding="utf-8"?>
<!-- Generator: Adobe Illustrator 21.1.0, SVG Export Plug-In . SVG Version: 6.00 Build 0)  -->
<svg version="1.1" id="Layer_1" xmlns="http://www.w3.org/2000/svg" xmlns:xlink="http://www.w3.org/1999/xlink" x="0px" y="0px"
     viewBox="0 0 49 49" style="enable-background:new 0 0 49 49;" xml:space="preserve" width="30px" height="30px">
<style type="text/css">
  .st0{fill:transparent;}
</style>
<path class="st0" d="M8.5,21.1h6.4v6.4H8.5V21.1z M21.2,21.1h6.4v6.4h-6.4V21.1z M33.8,21.1h6.4v6.4h-6.4V21.1z M8.6,33.3H15v6.4
  H8.6V33.3z M21.3,33.3h6.4v6.4h-6.4V33.3z M33.9,33.3h6.4v6.4h-6.4V33.3z M11.1,10.2c3.7,0,3.5-1.6,3.5-3.5V2.5
  C14.6,0.6,13,1,11.1,1c-2,0-3.5-0.4-3.5,1.5v4.2C7.6,8.6,7.7,10.2,11.1,10.2z M42.6,5.1l0,1.4c0,1.2,0,2.7-1.1,3.9
  c-1.2,1.2-3.1,1.3-4.4,1.3c-5.5,0-5.5-3.9-5.5-5.5V5.1h-15l0,1.9c0,1.1,0,2.7-1.2,3.9c-1.2,1.2-3.1,1.4-4.3,1.4
  c-5.5,0-5.5-3.9-5.5-5.5V5.2c-6,0.6-4.8,5.5-4.8,10v24.3c0,3,0,9.3,6.3,9.3h33.8c2.3,0,4-0.6,5.2-1.7c2.2-2.2,2.1-5.7,2.1-9.8
  c0-0.5,0-1.1,0-1.7v-22C48.1,7.2,47.7,5.3,42.6,5.1z M44,44.9c-0.6,0.6-1.6,0.9-3.1,0.9H7.1c-2.3,0-3.3-0.9-3.3-6.3V15.2h41.4v20.4
  c0,0.5,0,1.1,0,1.7C45.2,40.7,45.3,43.6,44,44.9z M37.1,9.7c3.7,0,3.5-1.5,3.5-3.5V2c0-1.9-1.6-1.5-3.5-1.5S33.6,0.1,33.6,2v4.2
  C33.6,8.1,33.7,9.7,37.1,9.7z"/>
</svg>
