<?xml version="1.0" encoding="utf-8"?>
<!-- Generator: Adobe Illustrator 21.1.0, SVG Export Plug-In . SVG Version: 6.00 Build 0)  -->
<svg version="1.1" id="OFM_Staff" xmlns="http://www.w3.org/2000/svg" xmlns:xlink="http://www.w3.org/1999/xlink" x="0px" y="0px"
     viewBox="0 0 88 80.3" style="enable-background:new 0 0 88 80.3;" xml:space="preserve" width="30px" height="30px">
  <style type="text/css">
    .st0{fill:transparent;}
  </style>
<path class="st0" d="M21.8,80.3C15.3,80.3,10,75,10,68.5v-49c0-6.4,5.3-11.7,11.8-11.7h5.6v3.5h-5.6c-4.5,0-8.2,3.7-8.2,8.3v49
  c0,4.5,3.7,8.2,8.2,8.2h44c4.5,0,8.2-3.7,8.2-8.2v-49c0-4.5-3.7-8.3-8.2-8.3h-4.7V7.8h4.7c6.5,0,11.8,5.3,11.8,11.8v49
  c0,6.5-5.3,11.8-11.8,11.8L21.8,80.3L21.8,80.3z M40.8,29h23v-4h-23V29z M40.8,48.5h23v-4h-23V48.5z M37.8,38.8h26v-4h-26V38.8z
   M37.8,58.3h26v-4h-26V58.3z M24.8,68h39v-4h-39C24.8,64,24.8,68,24.8,68z M29.2,54c-3.9,0-7-3.1-7-7s3.1-7,7-7c3.8,0,7,3.1,7,7
  S33.1,54,29.2,54z M28.5,50.7c0,0,6-5.5,6.4-5.8c-0.2-0.1-1.6-1.6-1.6-1.6L28.5,48l-2.7-3.1l-1.2,1.2L28.5,50.7z M30.8,11
  c0-3.6-0.1-5.5,3.5-5.5h3.1c0.2-1.7,1-3.1,2.3-4.1c1.4-1.1,3-1.6,4.7-1.4c2.9,0.3,5.2,2.5,5.7,5.5h3.2c3.6,0,3.5,2.9,3.5,6.5
  s0.1,3.5-3.5,3.5h-19C30.6,15.5,30.8,14.6,30.8,11z M44,9.5c3-0.1,3.3-2.2,3.3-3.3h-0.1C47,4.5,45.7,3.1,44.1,3
  c-0.9-0.1-1.8,0.2-2.6,0.7c-0.6,0.6-1,1.3-1.2,2.1C40.2,6.7,40.4,9.7,44,9.5z M29.2,20.5c3.8,0,7,3.1,7,7s-3.1,7-7,7s-7-3.1-7-7
  S25.4,20.5,29.2,20.5z M24.6,26.6l3.9,4.6c0,0,6-5.5,6.4-5.8c-0.2-0.1-1.6-1.6-1.6-1.6l-4.8,4.7l-2.7-3.1L24.6,26.6z"/>
</svg>
