<?xml version="1.0" encoding="utf-8"?>
<!-- Generator: Adobe Illustrator 21.1.0, SVG Export Plug-In . SVG Version: 6.00 Build 0)  -->
<svg version="1.1" id="Layer_1" xmlns="http://www.w3.org/2000/svg" xmlns:xlink="http://www.w3.org/1999/xlink" x="0px" y="0px"
     viewBox="0 0 21.8 13.9" style="enable-background:new 0 0 21.8 13.9;" xml:space="preserve" width="30px" height="30px">
<style type="text/css">
  .st0{fill:#545C66;}
  .st1{fill:#375C8F;}
</style>
<path class="st0" d="M15.2,0H1.2C0.5,0,0,0.6,0,1.3v11.4c0,0.7,0.6,1.3,1.2,1.3h13.9L19,7L15.2,0z M7.1,10.1H5.9L3.2,5.5h0v4.6h-1
  V3.9h1.1L6,8.5h0V3.9h1V10.1z M9.2,10.1H8.1V3.9h1.1V10.1z M15.2,10.1h-1.1V7.3h-2.8v2.8h-1.1V3.9h1.1v2.5h2.8V3.9h1.1V10.1z"/>
<path class="st1" d="M18.5,0.8C18.2,0.4,17.6,0,17.1,0h-1l3.8,7l-3.8,7h1c0.5,0,1.1-0.4,1.4-0.8L21.8,7L18.5,0.8z"/>
</svg>
