<?xml version="1.0" encoding="utf-8"?>
<!-- Generator: Adobe Illustrator 18.0.0, SVG Export Plug-In . SVG Version: 6.00 Build 0)  -->
<!DOCTYPE svg PUBLIC "-//W3C//DTD SVG 1.1 Tiny//EN" "http://www.w3.org/Graphics/SVG/1.1/DTD/svg11-tiny.dtd">
<svg version="1.1" baseProfile="tiny" id="Layer_1" xmlns="http://www.w3.org/2000/svg" xmlns:xlink="http://www.w3.org/1999/xlink"
     x="0px" y="0px" viewBox="0 0 72 72" xml:space="preserve" width="23px" height="23px">
  <style>
    .color1 {fill:transparent;}
  </style>
<path class="color1" d="M49.4,14.2H5.8c-2.2,0-3.9,1.8-3.9,4v35.6c0,2.2,1.8,4,3.9,4h43.6L61.3,36L49.4,14.2z M24,45.8h-3.5l-8.7-14.4h-0.1v14.4
  H8.5V26.3h3.5l8.7,14.4h0.1V26.3H24V45.8z M30.7,45.8h-3.3V26.3h3.3V45.8z M46.1,45.8V37h-8.7v8.8H34V26.3h3.4v7.8h8.7v-7.8h3.3
  v19.5H46.1z M59.7,16.8c-0.8-1.4-2.8-2.6-4.4-2.6h-3L64.2,36L52.3,57.8h3c1.6,0,3.6-1.2,4.4-2.6L70.1,36L59.7,16.8z"/>
</svg>
