<?xml version="1.0" encoding="utf-8"?>
<!-- Generator: Adobe Illustrator 21.1.0, SVG Export Plug-In . SVG Version: 6.00 Build 0)  -->
<svg version="1.1" id="ORG_Changes_icon" xmlns="http://www.w3.org/2000/svg" xmlns:xlink="http://www.w3.org/1999/xlink" x="0px"
     y="0px" viewBox="0 0 96 81" style="enable-background:new 0 0 96 81;" xml:space="preserve" width="30px" height="30px">
  <style type="text/css">
    .st0{fill:transparent;}
  </style>
<path class="st0" d="M83.5,57.8V42v-0.3v-3.3H49.8V23.2h14.4V0H31.8v23.2h14.4v15.2H12.5v3.3V42v15.8H0V81h28.4V57.8H16.5V42h29.8v15.8H34.5V81
  H61V57.8H49.8V42h29.8v15.8H66.6V81H96V57.8H83.5z M34.8,3h26.4v17.2H34.8V3z M25.4,78H3V60.8h22.4V78z M58,78H37.5V60.8H58V78z
   M93,78H69.6V60.8H93V78z"/>
</svg>
