<?xml version="1.0" encoding="utf-8"?>
<!-- Generator: Adobe Illustrator 21.1.0, SVG Export Plug-In . SVG Version: 6.00 Build 0)  -->
<svg version="1.1" id="Layer_1" xmlns="http://www.w3.org/2000/svg" xmlns:xlink="http://www.w3.org/1999/xlink" x="0px" y="0px"
     viewBox="0 0 258 174" style="enable-background:new 0 0 258 174;" xml:space="preserve" width="30px" height="30px">
<style type="text/css">
  .st0{fill:transparent;}
</style>
<path class="st0" d="M215.9,56.7h11.7v5.4h-11.7V56.7z M256.4,61.3v85.8v8.3v3.6c0,8.3-6.7,15-15,15h-37.7
  c-7.7,0-14.1-5.8-14.9-13.3H16c-8.3,0-15-6.7-15-15v-13h14.4v-118c0-7.9,6.5-14.4,14.4-14.4h168.4c7.9,0,14.4,6.5,14.4,14.4v31.6
  h28.8C249.7,46.3,256.4,53,256.4,61.3z M188.8,137.9h-30.2L7,138.7v7c0,4.9,4,9,9,9h172.8V137.9z M188.8,128.4h-165V19.5
  c0-10,7.2-10,13-10h153.5c5.6,0,14,0,14,10v26.8h2.4V14.7c0-4.6-3.8-8.4-8.4-8.4H29.8c-4.6,0-8.4,3.8-8.4,8.4v117.2v0.1h137.2
  l30.2-0.2V128.4z M198.3,47.4V19.5c0-3.1-0.3-4-8-4H36.8c-6.1,0-7,0-7,4v103h159V61.4C188.8,55,192.7,49.6,198.3,47.4z M250.4,155.4
  h-55.7v3.6c0,5,4,9,9,9h37.7c5,0,9-4,9-9V155.4z M250.4,72.5h-55.7v74.6h55.7V72.5z M250.4,61.3c0-4.9-4-9-9-9h-37.7c-5,0-9,4-9,9
  v4.5h55.7V61.3z M226.1,157.1h-7.2v7.2h7.2V157.1z M98.5,149.8H129v-6.9H98.5V149.8z"/>
</svg>
