<?xml version="1.0" encoding="utf-8"?>
<!-- Generator: Adobe Illustrator 21.1.0, SVG Export Plug-In . SVG Version: 6.00 Build 0)  -->
<svg version="1.1" id="Layer_1" xmlns="http://www.w3.org/2000/svg" xmlns:xlink="http://www.w3.org/1999/xlink" x="0px" y="0px"
     viewBox="0 0 80 77" style="enable-background:new 0 0 80 77;" xml:space="preserve" width="30px" height="30px">
<style type="text/css">
  .st0{fill:transparent;}
</style>
<path class="st0" d="M22.5,27.5h29v4h-29V27.5z M22.5,48.5h29v-4h-29V48.5z M22.5,56.5h29v-4h-29V56.5z M22.5,64.5h29v-4h-29V64.5z
   M22.5,40.5h29v-4h-29V40.5z M51.6,9L62,20.3V77H10V9H51.6z M58.8,21.6h-9.6v-9.3L13,12v62h46L58.8,21.6L58.8,21.6z M52.1,18.4h4
  l-4-4.3V18.4z M71,11.3V68h-5.6v-3H68V14H58V3H22c-0.1,0.9-0.1,2.7,0,4.4l-3,0.2c-0.4-5.8,0.5-6.7,0.8-7C20.1,0.2,20.6,0,21.1,0
  h39.5L71,11.3z M65.9,11l-5-5.2L61,11H65.9z"/>
</svg>
