<?xml version="1.0" encoding="utf-8"?>
<!-- Generator: Adobe Illustrator 21.1.0, SVG Export Plug-In . SVG Version: 6.00 Build 0)  -->
<svg version="1.1" xmlns="http://www.w3.org/2000/svg" xmlns:xlink="http://www.w3.org/1999/xlink" x="0px" y="0px"
     viewBox="0 0 82.2 73.2" style="enable-background:new 0 0 82.2 73.2;" xml:space="preserve" width="30px" height="30px">
<style type="text/css">
  .st0{fill:transparent;}
</style>
<g id="Layer_4">
</g>
<g id="Layer_3">
  <path class="st0" d="M81.9,52.8l-0.2,0.7L81,53.7c-4.5,1.3-9.2,2.3-13.9,2.9c-0.3-0.5-0.7-1-1.1-1.5l-0.4-0.8
    c4.5-0.6,9.6-1.6,13.9-2.9c0.2-1.4,0.2-3.3-0.6-5.2c-0.9-2.3-2.6-3.6-4.5-5.1c-1.6-1.2-2.7-1.8-4.9-2.9c-0.6-0.3-1.3-0.6-2-1
    c-2.2-1.2-4.5-2.4-6.8-3.7c-2.1,2-4.2,3.2-5.9,3.2c0,0-0.1,0-0.1,0c-1.5,0-3.5-1-5.5-2.8l0.1-0.1c0,0,0,0,0.1,0
    c0,0,0.1-0.1,0.1-0.1c0,0,0,0,0,0c0,0,0,0,0,0c0.1,0,0.1-0.1,0.2-0.2c0.1,0,0.1-0.1,0.1-0.1c0.5-0.3,0.8-0.8,1.1-1.2
    c1.5,1.4,2.9,2.1,3.8,2.1c2.1-0.1,7.4-4.3,9.6-11l0.1-0.3l0.2-0.2c0.6-0.6,1.2-1.4,1.6-2.1c0.4-0.6,0.7-1.2,0.9-2
    c0.1-0.6,0.3-1.4,0-1.7c-0.2-0.2-0.4-0.3-0.7-0.3L66,16.6l-1.1-0.3l0.2-1.1c0-0.1,1.4-6.7-2.8-10.4c-2.6-2.3-5.9-2.3-7.5-2.3
    c-0.1,0-0.1,0-0.2,0c-1.6,0-4.5,0.1-7,2C47,5,46.5,5.6,46,6.3l-1.9-1.6c0.6-0.8,1.2-1.5,2-2.1C49.3,0,53.2,0,54.8,0
    c1.7,0,5.8,0,9.1,2.9c4.2,3.6,4.1,9.3,3.8,11.7c0.6,0.2,1,0.5,1.4,1c1,1.3,0.7,2.8,0.5,3.8c-0.2,1.2-0.7,2-1.2,2.7
    c-0.5,0.8-1.1,1.6-1.8,2.4c-1,2.8-2.5,5.3-4.2,7.3c2.1,1.2,4.1,2.3,6.2,3.4c0.8,0.4,1.4,0.7,2,1c2.3,1.2,3.5,1.8,5.3,3.2
    c2,1.6,4.1,3.2,5.3,6.1C82.2,47.7,82.4,50.2,81.9,52.8z M64.8,58.7c-1.4-3.5-4-5.4-6.4-7.3c-2.1-1.7-3.7-2.4-6.4-3.9
    c-0.7-0.4-1.5-0.8-2.4-1.2c-2.5-1.3-5-2.7-7.5-4.1c2-2.5,3.9-5.5,5-8.9c0.8-0.9,1.5-1.8,2.1-2.9c0.5-0.9,1.1-1.9,1.4-3.3
    c0.2-1.1,0.6-3-0.6-4.6c-0.4-0.5-1-0.9-1.7-1.2c0.3-2.9,0.4-9.7-4.6-14.1c-4-3.5-8.9-3.5-11-3.5c-2,0-6.7,0-10.5,3.1
    c-4,3.2-5.9,8.8-5.1,14.8c-0.6,0.2-1.1,0.6-1.5,1.1c-1.3,1.6-0.8,3.6-0.5,4.5c0.2,0.7,0.4,1.2,1.5,2.9c0.5,0.9,1.1,1.7,1.7,2.5
    c1.2,3.5,3,6.6,5,9.2c-1.4,0.8-3.1,1.8-4.8,2.7c-2.2,1.1-3.8,1.7-5.1,2.2c-2,0.8-3.4,1.4-5.2,2.8c-3.2,2.5-5.1,5.6-6.1,7.7
    C0.7,60.3,0,63.6,0,67L0,68l1,0.3c10.2,3.1,20.9,4.8,31.6,4.9c0.2,0,0.5,0,0.7,0c10.6,0,21.1-1.5,31.2-4.5l0.9-0.3l0.2-0.9
    C66.2,64.4,66,61.4,64.8,58.7z M21.1,31.4l-0.1-0.2c-0.6-0.8-1.2-1.7-1.7-2.6c-0.9-1.5-1-1.8-1.1-2.1c-0.1-0.5-0.4-1.4,0-1.8
    c0.2-0.3,0.8-0.3,0.9-0.3l1.8-0.1l-0.4-1.7c-1.1-5.4,0.3-10.5,3.8-13.3c2.9-2.4,6.5-2.5,8.4-2.5c0.1,0,0.2,0,0.2,0
    c1.9,0,5.9,0,9,2.7C47,14,45.3,22,45.3,22.1L45,23.5l1.6,0l0.5,0.2c0.3,0,0.5,0.5,0.7,0.7c0.4,0.4,0.2,1.3,0,2.1
    c-0.2,0.9-0.6,1.6-1,2.4c-0.5,0.9-1.2,1.8-1.9,2.6l-0.2,0.2L44.5,32c-2.7,8.1-9.1,13.2-11.7,13.3c-2.5,0.1-9-5.2-11.7-13.6
    L21.1,31.4z M62.8,66.1c-9.8,2.8-19.9,4.2-30.1,4.1c-10-0.1-20-1.5-29.6-4.4c0.1-2.5,0.7-5,1.8-7.2c0.9-1.8,2.5-4.4,5.2-6.6
    c1.5-1.2,2.6-1.6,4.5-2.4c1.3-0.5,2.9-1.2,5.3-2.3c2.1-1,4.1-2.2,5.6-3.1c2.6,2.5,5.3,4,7.4,4c0,0,0.1,0,0.1,0
    c2-0.1,4.7-1.5,7.2-3.9c2.7,1.6,5.5,3.1,8.2,4.5c0.9,0.5,1.7,0.9,2.4,1.3c2.7,1.4,4,2,5.9,3.5c2.3,1.8,4.3,3.4,5.5,6.1
    C63,62.1,63,64.4,62.8,66.1z"/>
</g>
</svg>
