<svg id="Fair_Act" data-name="Fair Act" xmlns="http://www.w3.org/2000/svg" width="97" height="95" viewBox="0 0 97 95">
  <metadata><?xpacket begin="﻿" id="W5M0MpCehiHzreSzNTczkc9d"?>
<x:xmpmeta xmlns:x="adobe:ns:meta/" x:xmptk="Adobe XMP Core 5.6-c138 79.159824, 2016/09/14-01:09:01        ">
   <rdf:RDF xmlns:rdf="http://www.w3.org/1999/02/22-rdf-syntax-ns#">
      <rdf:Description rdf:about=""/>
   </rdf:RDF>
</x:xmpmeta>
                                                                                                    
                                                                                                    
                                                                                                    
                                                                                                    
                                                                                                    
                                                                                                    
                                                                                                    
                                                                                                    
                                                                                                    
                                                                                                    
                                                                                                    
                                                                                                    
                                                                                                    
                                                                                                    
                                                                                                    
                                                                                                    
                                                                                                    
                                                                                                    
                                                                                                    
                                                                                                    
                           
<?xpacket end="w"?></metadata>
<defs>
    <style>
      .cls-1 {
        fill: none;
        stroke: #fff;
        stroke-width: 3px;
        fill-rule: evenodd;
      }
    </style>
  </defs>
  <path id="Rounded_Rectangle_582" data-name="Rounded Rectangle 582" class="cls-1" d="M706.6,113.2L726.907,94.2a4.319,4.319,0,0,1,6.361.436,5.018,5.018,0,0,1-.41,6.772L712.547,120.41a4.32,4.32,0,0,1-6.361-.436A5.017,5.017,0,0,1,706.6,113.2Z" transform="translate(-677.5 -91.5)"/>
  <path id="Rounded_Rectangle_583" data-name="Rounded Rectangle 583" class="cls-1" d="M727.238,179.308a3.48,3.48,0,0,1,1.368-6.678h37.059a3.48,3.48,0,0,1,.665,6.9" transform="translate(-677.5 -91.5)"/>
  <path id="Rounded_Rectangle_583_copy" data-name="Rounded Rectangle 583 copy" class="cls-1" d="M767.027,178.042h2.5a3.479,3.479,0,0,1,0,6.958H725.517a3.479,3.479,0,0,1,0-6.958h1.611" transform="translate(-677.5 -91.5)"/>
  <path id="Rounded_Rectangle_582_copy_2" data-name="Rounded Rectangle 582 copy 2" class="cls-1" d="M742.273,152.085l22.449-18.494a5.218,5.218,0,0,1,7.031.425,4.468,4.468,0,0,1-.453,6.589L748.851,159.1a5.218,5.218,0,0,1-7.031-.425A4.467,4.467,0,0,1,742.273,152.085Z" transform="translate(-677.5 -91.5)"/>
  <path class="cls-1" d="M743.376,112.033m9.741,10.875-19.589,18.1-44.644,41.252a15.643,15.643,0,0,1-6.611-4.016c-2.143-2.325-3.282-6.719-3.282-6.719l44.592-41.2" transform="translate(-677.5 -91.5)"/>
  <path id="Rounded_Rectangle_582_copy" data-name="Rounded Rectangle 582 copy" class="cls-1" d="M722.748,131.99l-9.15-10.005,22.617-19.906s12.609,14.2,17.483,19.526m-0.208-.636,9.425,10.306L740.3,151.181l-8.959-9.8" transform="translate(-677.5 -91.5)"/>
</svg>
