<?xml version="1.0" encoding="utf-8"?>
<!-- Generator: Adobe Illustrator 21.1.0, SVG Export Plug-In . SVG Version: 6.00 Build 0)  -->
<svg version="1.1" id="Layer_1" xmlns="http://www.w3.org/2000/svg" xmlns:xlink="http://www.w3.org/1999/xlink" x="0px" y="0px"
   viewBox="0 0 51.2 40" style="enable-background:new 0 0 51.2 40;" xml:space="preserve" width="30px">
<style type="text/css">
  .st0{fill:transparent;}
</style>
<path class="st0" d="M0,39.3h12.3V0.9H0V39.3z M1,1.9h10.3V37H1V1.9z M36.2,0L25.9,4.4V0.9H13.6v38.3h12.3v-32L39.8,40l11.4-4.7
  L36.2,0z M24.9,4.8v0.1V37H14.6V1.9h10.3V4.8z M26.2,5.4l9.5-4l13.7,32.2l-9.5,4L26.2,5.4z M3,5.3h6.3v1.5H3V5.3z M3,7.9h6.3v1.5H3
  V7.9z M3,10.5h6.3V12H3V10.5z M22.9,6.8h-6.3V5.3h6.3V6.8z M22.9,9.4h-6.3V7.9h6.3V9.4z M22.9,12h-6.3v-1.5h6.3V12z M37.1,9.8
  l0.6,1.4l-5.8,2.5l-0.6-1.4L37.1,9.8z M36.7,8.9l-5.8,2.5L30.4,10l5.8-2.5L36.7,8.9z M35.6,6.5L29.8,9l-0.6-1.4l5.8-2.5L35.6,6.5z
   M46,30.9l-5.8,2.5L39.6,32l5.8-2.5L46,30.9z M22.9,33.9h-6.3v-1.5h6.3V33.9z M3,32.4h6.3v1.5H3V32.4z"/>
</svg>
