<?xml version="1.0" encoding="utf-8"?>
<!-- Generator: Adobe Illustrator 21.1.0, SVG Export Plug-In . SVG Version: 6.00 Build 0)  -->
<svg version="1.1" id="Layer_7" xmlns="http://www.w3.org/2000/svg" xmlns:xlink="http://www.w3.org/1999/xlink" x="0px" y="0px"
   viewBox="0 0 72 72" style="enable-background:new 0 0 72 72;" xml:space="preserve" width="20px">
  <style type="text/css">
    .st0 {fill:#transparent;}
  </style>
<g>
  <path class="st0" d="M9.8,64.3c2.3,2.1,5.8,1.9,7.9-0.4l11.2-12.6c0.1-0.2,0.3-0.4,0.4-0.6c8.8,4.7,20,2.9,26.9-4.9c8.3-9.3,7.5-23.5-1.7-31.8
    C45.4,5.7,31.3,6.5,23,15.8c-7,7.8-7.5,19.2-1.9,27.5c-0.2,0.2-0.3,0.3-0.5,0.5L9.5,56.4C7.4,58.7,7.6,62.2,9.8,64.3z M29.9,21.9
    c4.9-5.4,13.2-5.9,18.6-1c5.4,4.8,5.8,13.2,1,18.7c-4.9,5.4-13.2,5.9-18.6,1S25,27.4,29.9,21.9z"/>
</g>
</svg>
