<?xml version="1.0" encoding="utf-8"?>
<!-- Generator: Adobe Illustrator 21.1.0, SVG Export Plug-In . SVG Version: 6.00 Build 0)  -->
<svg version="1.1" id="Layer_1" xmlns="http://www.w3.org/2000/svg" xmlns:xlink="http://www.w3.org/1999/xlink" x="0px" y="0px"
   viewBox="0 0 49.1 48.8" style="enable-background:new 0 0 49.1 48.8;" xml:space="preserve" width="30px">
  <style type="text/css">
    .st0 {fill:#transparent;}
  </style>
<path class="st0" d="M29.5,23.8l-0.4-0.2L29,23.5c-0.7-0.7-1.2-1.3-1.7-1.8c-0.7-0.8-1.3-1.4-1.8-1.9c-0.3-0.4-0.7-0.8-1.1-1.2
  c-0.3-0.3-0.7-0.7-1.1-1.2l-0.5-0.5l0.4-0.6c0.5-0.5,0.9-1.1,1.2-1.5c0.1-0.1,0.1-0.2,0.2-0.3c0-0.3-0.1-1.1-0.1-1.6
  c0-0.3-0.1-0.6-0.1-0.8c-0.3-2.3-0.5-4,0.2-4.9c2.1-3.1,5.4-5.4,9.7-6.7C35.2,0.2,37,0,38.5,0c1,0,1.8,0.1,2.3,0.3l0.5,0.2L41.4,1
  c0.2,0.6,0.3,0.9-8.8,7.4l0,0c-0.1,1.1-0.5,4.3,0.9,5.6c0.8,0.5,2.1,0.8,3.7,0.8c1.7,0,3.2-0.3,3.9-0.4c5.2-7.6,5.8-7.6,6.3-7.6h0.5
  l0.4,0.5l0,0.1c0.6,1.8,0.4,4.9-0.3,6.8c-0.5,1.6-2,5.6-6.3,8.2c-0.3,0.2-1.1,0.5-3.6,0.5l0,0c-1.3,0-3-0.1-5-0.2l-0.2,0
  c-0.2,0-0.3,0-0.4,0c-0.7,0-1.3,0.4-1.8,0.8l-0.2,0.1c-0.3,0.2-0.6,0.4-0.9,0.4H29.5z M25.5,17c0.5,0.6,1,1.1,1.4,1.5
  c0.8,0.9,1.6,1.8,3.1,3.2c0.6-0.5,1.6-1,2.7-1c0.2,0,0.3,0,0.5,0l0.1,0c2.3,0.2,4.1,0.2,5.4,0.2c1.8,0,2.1-0.1,2.1-0.2
  c3.4-1.9,4.8-4.9,5.5-7.1c0.4-1.2,0.5-2.8,0.5-4.1c-1.1,1.4-2.8,3.7-4.4,6.1l-0.2,0.4h-0.5c0,0-0.1,0-0.2,0
  c-0.7,0.1-2.4,0.5-4.2,0.5c-2.1,0-3.8-0.4-4.9-1.2c-1.5-1.4-2-4-1.5-7.5l0-0.1l0-0.2L31,7l0.1-0.1c2.7-1.9,5.6-4,7.2-5.3
  c-1.2,0-2.7,0.2-3.6,0.5c-3.9,1.2-6.9,3.2-8.7,6c-0.3,0.4,0,2.3,0.1,3.4l0,0.3l0.1,0.8c0.2,1.4,0.3,2.2,0,2.8
  c-0.1,0.2-0.4,0.6-1,1.4L25.5,17z M7,48.5c-1.1,0-2.3-0.5-3-1.2c-0.2-0.3-0.5-0.5-0.7-0.8c-1.2-1.3-2.5-2.6-3-3.9
  c-0.9-1.8,1.3-4.1,1.7-4.5l8.7-8.9c2.7-2.6,5.8-5.7,5.8-5.7l0.8-0.6c2.2,2.2,4.4,4.4,6.6,6.6c-0.1,0.3-0.3,0.9-0.3,1.7
  c0,0.7,0.2,1.2,0.4,1.5c0,0.1,0.1,0.2,0.1,0.2c0,0,0,0.2-0.1,0.4c-0.2,0.3-11.3,11.7-12.7,13.1c0,0,0,0,0,0
  c-0.4,0.6-1.6,1.3-1.9,1.5C8.5,48.3,7.8,48.5,7,48.5z M15.9,26.8c-1.1,1.1-2.5,2.5-3.8,3.8l-8.8,9c-0.8,0.8-1.5,1.9-1.3,2.3
  c0.5,1.2,2,2.7,3.3,4c0.4,0.4,1,0.7,1.7,0.7c0.5,0,0.9-0.2,1.3-0.4c0.8-0.4,1.4-0.9,1.5-1c0.9-0.9,5.6-5.7,12.1-12.5
  c-0.1-0.2-0.2-0.6-0.2-1.1c0-0.5,0.1-0.9,0.2-1.2c-1.6-1.6-3.2-3.2-4.8-4.8C16.8,25.9,16.4,26.3,15.9,26.8z M42.8,48.8
  c-1.4-0.1-2.9-0.9-4.3-2.2L27.8,35.9c-1.2-1.2-2-2.7-2.2-4.2c-0.2-0.8-0.3-2.3,0.5-4.1L11.4,12.8c-1.3-0.1-2.8-0.5-3.5-0.7
  c-0.1,0-0.2-0.1-0.3-0.1H7.5l0,0l-0.3-0.2L1,2.8l3.6-2.7L13,7.3v0.4c0,0,0,0,0,0c0,0,0.2,1,0.3,3L28.1,26c0.9-0.3,1.8-0.4,2.6-0.4
  c0.9,0,1.7,0.2,2.5,0.5c1.2,0.4,2.3,1.2,3.3,2.1l7.6,7.6l1.2,1.1c0.4,0.4,0.9,0.9,1.3,1.4l0.5,0.4c2.7,2.7,2.8,6,0.2,8.5
  c-1.1,1.1-2.3,1.6-3.8,1.6H42.8z M27.5,31.5c0.3,0.9,0.8,1.8,2,3l8.7,8.8c1.4,1.5,3.1,3.2,4.8,3.3c0.1,0,0.1,0,0.2,0
  c0.7,0,1.6-0.5,2.6-1.4c1.6-1.5,1.4-2.9-0.8-5.5l-2.4-2.4L35,30.2l-0.4-0.4c-0.8-0.8-1.5-1.5-2.3-1.8c-0.4-0.2-0.9-0.3-1.3-0.3
  c-1,0-1.7,0.3-2.3,1C27.9,29.4,27.5,30.3,27.5,31.5z M9,10.3c0.6,0.1,1.5,0.4,2.4,0.5c-0.1-1.2-0.2-2-0.2-2.5L4.6,2.6L3.8,3.2
  l4.6,6.9C8.6,10.2,8.8,10.3,9,10.3z"/>
</svg>
